<svg xmlns:xlink="http://www.w3.org/1999/xlink" xmlns="http://www.w3.org/2000/svg" fill="none" height="36" viewBox="0 0 25 36" width="25"><SCRIPT xmlns="" id="allow-copy_script">(function agent() {
    let unlock = false
    document.addEventListener('allow_copy', (event) =&gt; {
      unlock = event.detail.unlock
    })

    const copyEvents = [
      'copy',
      'cut',
      'contextmenu',
      'selectstart',
      'mousedown',
      'mouseup',
      'mousemove',
      'keydown',
      'keypress',
      'keyup',
    ]
    const rejectOtherHandlers = (e) =&gt; {
      if (unlock) {
        e.stopPropagation()
        if (e.stopImmediatePropagation) e.stopImmediatePropagation()
      }
    }
    copyEvents.forEach((evt) =&gt; {
      document.documentElement.addEventListener(evt, rejectOtherHandlers, {
        capture: true,
      })
    })
  })()</SCRIPT><path d="m20.9548 15.3558c1.4794.279 2.5216.908 3.131 1.878.6095.9744.9142 2.5068.9142 4.5974 0 4.1545-1.2454 7.5517-3.7361 10.2003-2.4907 2.6442-5.6748 3.9685-9.5522 3.9685-1.528 0-3.01182-.2746-4.4515-.8283-1.43967-.5536-2.67621-1.3243-3.7096-2.312-1.18354-1.0895-2.0712-2.2367-2.66297-3.4503-.591768-1.2135-.88763-2.4537-.88763-3.7204 0-1.4173.304693-2.5113.914126-3.2864.609434-.7751 1.567754-1.3022 2.883784-1.5812-.24731-.5758-.42837-1.063-.54319-1.4572s-.17223-.6998-.17223-.9169c0-.7396.3886-1.5014 1.17027-2.2765.78166-.7751 1.51475-1.1605 2.20809-1.1605.29588 0 .60946.0532.93625.1595.3268.1063.70657.2834 1.13494.5315-1.26744-3.592-2.18601-6.36469-2.76011-8.31794-.57411-1.95324-.86114-3.2997-.86114-4.04379 0-1.02313.17665-1.80266.68893-2.413881.62709-.748524 1.56773-.925689 2.47305-.925689 1.8283 0 2.48193 1.57234 5.63943 10.3863.424 1.1826.7243 2.0994.9363 2.7461.181-.5094.4372-1.2357.764-2.1747 2.367-6.85632 3.3783-10.284471 6.112-10.284471.839 0 1.5059.283464 2.0093.854821.5035.56693.7508 1.33317.7508 2.28543 0 .72638-.2738 2.05069-.8258 3.98179-.5521 1.92225-1.3867 4.44683-2.504 7.56053zm-17.6515 10.0896c.22964.279.55201.6909.96272 1.2357 1.08638 1.5015 2.08885 2.25 3.00742 2.25.31355 0 .59178-.0974.83908-.2968.24731-.1993.37095-.403.37095-.62 0-.2481-.1634-.66-.49461-1.2358-.33122-.5757-.78167-1.2268-1.35577-1.9532-.65801-.8415-1.2056-1.4528-1.63839-1.8425-.4372-.3854-.78608-.5802-1.04663-.5802-.57411 0-1.10406.31-1.58984.9256-.48578.6201-.72866 1.3465-.72866 2.188 0 .6777.1678 1.4306.50343 2.2633s.82583 1.6698 1.46617 2.5113c.97156 1.3022 2.17276 2.3032 3.61244 3.003 1.43967.6998 3.02949 1.0497 4.76949 1.0497 3.2061 0 5.8868-1.2003 8.0507-3.5965 2.1595-2.3961 3.2415-5.4035 3.2415-9.0132 0-1.1029-.0839-1.9799-.2473-2.6354-.1634-.6511-.4372-1.125-.8126-1.4217-.6757-.5581-1.9829-1.063-3.9304-1.5104-1.9476-.4429-3.9834-.6688-6.1032-.6688-.5918 0-1.0113.0975-1.2586.2968s-.371.5359-.371 1.0143c0 1.1205.6227 1.9311 1.8725 2.436s3.2724.7529 6.0634.7529h1.0113c.2297 0 .4152.0886.5565.2614.1413.1727.234.434.2826.7795-.2782.2657-.8567.5669-1.7267.9035s-1.5368.6733-1.9961 1.001c-.9848.7264-1.7798 1.5856-2.3804 2.5822s-.9008 1.94-.9008 2.8302c0 .5448.128 1.2003.3842 1.9665.2561.7663.3842 1.2402.3842 1.4218v.1727l-.0486.2215c-.7243-.0487-1.2939-.4739-1.7135-1.2712-.4195-.7972-.6271-1.8646-.6271-3.2022v-.2215c-.1325.1152-.2606.1993-.3842.248-.1237.0488-.2606.0753-.4063.0753-.1501 0-.287-.0132-.4195-.0354-.1325-.0266-.2783-.062-.4417-.1107.0486.1816.0884.3587.1105.5315.0264.1727.0353.31.0353.4075 0 .6112-.23848 1.1338-.71543 1.5679-.47695.4384-1.04223.6555-1.70025.6555-1.03338 0-2.08883-.5049-3.15755-1.5192s-1.60308-2.0064-1.60308-2.9808c0-.1816.02209-.3411.06184-.4828.04416-.1373.11481-.2569.21197-.3543zm7.3971.589c.2782 0 .5343-.1284.764-.3853.2296-.2569.3445-.5315.3445-.8282 0-.3145-.2253-1.0409-.6801-2.188-.4505-1.1472-1.0158-2.2722-1.68703-3.375-.49461-.8238-.97596-1.4484-1.45291-1.8647-.47695-.4208-.9274-.6289-1.35577-.6289-.34447 0-.72866.217-1.1482.6555s-.62709.8459-.62709 1.2224c0 .3942.20754.9877.61825 1.7805.4107.7928.96272 1.63 1.65165 2.5202.72425.9744 1.40435 1.7318 2.04469 2.2766.64035.5448 1.14821.8149 1.52801.8149zm2.4156-11.9409-2.6629-7.71555c-.68893-1.9621-1.22329-3.24212-1.60308-3.84449-.37979-.60236-.79049-.90354-1.23211-.90354-.34446 0-.62269.13287-.83908.39419-.21198.26575-.32237.62008-.32237 1.063 0 .75738.28703 2.07726.86113 3.95521.5741 1.87796 1.4397 4.34498 2.5879 7.39218.09711-.1816.23841-.31.41951-.3853s.4284-.1107.7375-.1107c.0972 0 .2959.0088.5918.0266.3003.0221.7861.062 1.4617.1284zm2.7866 7.4941c-.7065-.031-1.3778-.1063-2.0093-.2215-.6315-.1151-1.2365-.279-1.8106-.496.2605.527.4946 1.0541.7021 1.5812.2076.527.3754 1.0453.5035 1.559.393-.496.8081-.9434 1.2453-1.3464.4328-.4075.8921-.7663 1.369-1.0763zm3.2769-6.6526c1.0996-2.9985 1.9607-5.47437 2.5746-7.42762.6183-1.95325.923-3.15354.923-3.59646 0-.47834-.1016-.85039-.3092-1.11171-.2075-.26132-.4901-.39419-.8523-.39419-.4593 0-.9274.38533-1.4043 1.15157-.477.76624-1.0025 1.99754-1.5766 3.69833l-2.4642 7.14418z" fill="#000"/></svg>